<mxfile host="app.diagrams.net" modified="2022-05-23T13:42:18.317Z" agent="5.0 (Macintosh; Intel Mac OS X 10_15_7) AppleWebKit/537.36 (KHTML, like Gecko) Chrome/101.0.4951.64 Safari/537.36" etag="jvJaq4ek35HkNTCbFUTE" version="18.1.1" type="github">
  <diagram id="WLTdoUCkIdi1xevVH06I" name="Page-1">
    <mxGraphModel dx="1426" dy="712" grid="1" gridSize="10" guides="1" tooltips="1" connect="1" arrows="1" fold="1" page="1" pageScale="1" pageWidth="850" pageHeight="1100" math="0" shadow="0">
      <root>
        <mxCell id="0" />
        <mxCell id="1" parent="0" />
        <mxCell id="pQvjBnQ6-1oKnFR016Xf-1" value="Player" style="shape=umlActor;verticalLabelPosition=bottom;verticalAlign=top;html=1;outlineConnect=0;" vertex="1" parent="1">
          <mxGeometry x="100" y="160" width="30" height="60" as="geometry" />
        </mxCell>
        <mxCell id="pQvjBnQ6-1oKnFR016Xf-2" value="" style="swimlane;startSize=0;" vertex="1" parent="1">
          <mxGeometry x="260" y="80" width="200" height="500" as="geometry" />
        </mxCell>
        <mxCell id="pQvjBnQ6-1oKnFR016Xf-4" value="&amp;lt;&amp;lt;include&amp;gt;&amp;gt;" style="html=1;verticalAlign=bottom;labelBackgroundColor=none;endArrow=open;endFill=0;dashed=1;rounded=0;" edge="1" parent="1">
          <mxGeometry width="160" relative="1" as="geometry">
            <mxPoint x="340" y="370" as="sourcePoint" />
            <mxPoint x="500" y="370" as="targetPoint" />
          </mxGeometry>
        </mxCell>
      </root>
    </mxGraphModel>
  </diagram>
</mxfile>
